<svg width="90" height="90" viewBox="0 0 90 90" fill="none" xmlns="http://www.w3.org/2000/svg">
<g id="Frame" clip-path="url(#clip0_89_425)">
<path id="Vector" d="M84.4569 0.374512H5.54305C2.68854 0.374512 0.374512 2.68854 0.374512 5.54305V84.4569C0.374512 87.3114 2.68854 89.6254 5.54305 89.6254H84.4569C87.3114 89.6254 89.6254 87.3114 89.6254 84.4569V5.54305C89.6254 2.68854 87.3114 0.374512 84.4569 0.374512Z" fill="#BCBEC0" stroke="#E6E7E8" stroke-miterlimit="10"/>
<path id="Vector_2" d="M77.1086 7.73022H12.8989C10.0444 7.73022 7.73035 10.0443 7.73035 12.8988V77.1085C7.73035 79.963 10.0444 82.2771 12.8989 82.2771H77.1086C79.9632 82.2771 82.2772 79.963 82.2772 77.1085V12.8988C82.2772 10.0443 79.9632 7.73022 77.1086 7.73022Z" fill="#E6E8E6" stroke="#F1F2F2" stroke-width="2" stroke-miterlimit="10"/>
<path id="Vector_3" d="M43.4382 58.3744V46.7489C39.8127 45.7152 37.1536 44.1422 35.4607 42.0448C33.7678 39.9474 32.9213 37.3931 32.9213 34.3969C32.9213 31.4006 33.8801 28.8163 35.7903 26.7489C37.7004 24.6815 40.2547 23.498 43.4382 23.1834V20.4343H47.4607V23.1834C50.4045 23.5354 52.7416 24.5392 54.4794 26.1946C56.2172 27.8501 57.3259 30.0673 57.8127 32.8388L50.794 33.7527C50.367 31.5729 49.2584 30.0898 47.4607 29.3107V40.1647C51.9026 41.3707 54.9288 42.9287 56.5318 44.8388C58.1348 46.7489 58.9438 49.2059 58.9438 52.2096C58.9438 55.5579 57.9326 58.3819 55.9026 60.674C53.8802 62.9662 51.0637 64.3744 47.4532 64.8912V70.0823H43.4307V65.0336C40.2322 64.6441 37.633 63.453 35.633 61.453C33.633 59.453 32.3595 56.6366 31.8052 52.9886L39.0487 52.2096C39.3408 53.6927 39.9026 54.9662 40.7116 56.0373C41.5281 57.1085 42.4345 57.8875 43.4307 58.3669L43.4382 58.3744ZM43.4382 29.2358C42.3446 29.6029 41.4757 30.2321 40.8315 31.1235C40.1873 32.0148 39.8577 32.9961 39.8577 34.0673C39.8577 35.0486 40.1498 35.9624 40.7491 36.8014C41.3408 37.6403 42.2397 38.322 43.4382 38.8388V29.2358ZM47.4607 58.7639C48.8464 58.5017 49.9775 57.865 50.8464 56.8388C51.7154 55.8126 52.1498 54.6066 52.1498 53.2208C52.1498 51.9849 51.7828 50.9137 51.0562 50.0148C50.3221 49.116 49.1311 48.4268 47.4607 47.9474V58.7714V58.7639Z" fill="#1F231F"/>
</g>
<defs>
<clipPath id="clip0_89_425">
<rect width="90" height="90" fill="white"/>
</clipPath>
</defs>
</svg>
