<svg width="127" height="82" viewBox="0 0 127 82" fill="none" xmlns="http://www.w3.org/2000/svg">
<path d="M126.281 2.21015C126.493 1.70003 126.251 1.11491 125.741 0.903256C125.231 0.691598 124.646 0.933546 124.434 1.44366L126.281 2.21015ZM102.291 33.2589L102.913 34.0421L102.291 33.2589ZM75.4568 41.2712L75.7366 40.3111L75.4568 41.2712ZM69.4239 37.256L68.5485 37.7393L68.6114 37.8533L68.7015 37.9474L69.4239 37.256ZM70.0376 23.4334L70.9259 23.8926L70.0376 23.4334ZM80.0708 14.3682L79.6469 13.4625L80.0708 14.3682ZM94.1949 13.6482L93.8482 14.5862L93.8876 14.6008L93.9281 14.612L94.1949 13.6482ZM89.1971 40.4417L90.0597 40.9476L89.1971 40.4417ZM63.4271 64.1489L62.9077 63.2944L63.4271 64.1489ZM26.1842 74.7963L26.0758 73.8022L26.1842 74.7963ZM3.80836 72.9882L3.75937 73.987L3.80836 72.9882ZM0.618412 71.5858C0.123756 71.8315 -0.0780835 72.4316 0.167577 72.9262L4.17079 80.9869C4.41644 81.4816 5.01658 81.6834 5.51122 81.4377C6.00586 81.1921 6.2077 80.592 5.96205 80.0973L2.40364 72.9323L9.56867 69.3739C10.0633 69.1282 10.2652 68.5281 10.0195 68.0334C9.77384 67.5388 9.17371 67.3369 8.67907 67.5826L0.618412 71.5858ZM124.434 1.44366C122.744 5.51626 118.818 11.8815 114.39 17.968C109.958 24.0608 105.125 29.7325 101.669 32.4756L102.913 34.0421C106.594 31.1199 111.559 25.2595 116.007 19.1445C120.461 13.0233 124.499 6.50514 126.281 2.21015L124.434 1.44366ZM101.669 32.4756C98.532 34.9657 93.9706 37.5111 89.1956 39.1359C84.3972 40.7687 79.5381 41.4193 75.7366 40.3111L75.1769 42.2312C79.5546 43.5074 84.8815 42.7165 89.8398 41.0293C94.8215 39.3342 99.5876 36.6814 102.913 34.0421L101.669 32.4756ZM75.7366 40.3111C74.819 40.0436 74.0456 39.7424 73.2049 39.2099C72.3532 38.6704 71.3956 37.8698 70.1464 36.5646L68.7015 37.9474C70.0157 39.3206 71.0987 40.2432 72.1347 40.8995C73.1817 41.5627 74.143 41.9298 75.1769 42.2312L75.7366 40.3111ZM70.2994 36.7727C69.0345 34.4815 68.6269 32.4044 68.7953 30.3637C68.9657 28.2993 69.7311 26.2039 70.9259 23.8926L69.1493 22.9742C67.8976 25.3955 67.0034 27.7608 66.8021 30.1992C66.5989 32.6614 67.1077 35.1293 68.5485 37.7393L70.2994 36.7727ZM70.9259 23.8926C73.1317 19.6255 75.9216 17.414 80.4946 15.2739L79.6469 13.4625C74.8 15.7307 71.6133 18.2074 69.1493 22.9742L70.9259 23.8926ZM80.4946 15.2739C84.6497 13.3294 89.5006 12.9792 93.8482 14.5862L94.5416 12.7103C89.6519 10.9028 84.246 11.3102 79.6469 13.4625L80.4946 15.2739ZM93.9281 14.612C94.721 14.8315 95.2345 15.2587 95.577 15.85C95.9371 16.4717 96.14 17.3342 96.1628 18.4396C96.2087 20.6616 95.524 23.5423 94.4894 26.545C92.4303 32.5211 89.1305 38.5786 88.3345 39.9358L90.0597 40.9476C90.8906 39.5308 94.2614 33.3463 96.3803 27.1965C97.4347 24.1362 98.2158 20.9831 98.1624 18.3983C98.1356 17.1002 97.8975 15.866 97.3077 14.8476C96.7002 13.7988 95.7546 13.0424 94.4617 12.6845L93.9281 14.612ZM88.3345 39.9358C82.0822 50.5961 73.3749 56.9319 62.9077 63.2944L63.9466 65.0035C74.4875 58.5962 83.5489 52.0486 90.0597 40.9476L88.3345 39.9358ZM62.9077 63.2944C51.4779 70.2421 39.6627 72.3208 26.0758 73.8022L26.2926 75.7904C39.9359 74.3029 52.1223 72.1908 63.9466 65.0035L62.9077 63.2944ZM26.0758 73.8022C22.3868 74.2044 18.7786 73.8596 15.1007 73.3524C11.4564 72.8499 7.68847 72.1774 3.85737 71.9894L3.75937 73.987C7.47333 74.1692 11.0779 74.8167 14.8275 75.3337C18.5436 75.8461 22.3508 76.2202 26.2926 75.7904L26.0758 73.8022ZM3.85737 71.9894C2.78358 71.9367 2.29265 71.8399 1.38198 71.5336L0.744419 73.4293C1.83583 73.7963 2.5088 73.9257 3.75937 73.987L3.85737 71.9894Z" fill="black"/>
</svg>
