<svg width="138" height="59" viewBox="0 0 138 59" fill="none" xmlns="http://www.w3.org/2000/svg">
<path id="Arrow" d="M0.475412 2.14741C0.175296 1.68379 0.307846 1.06465 0.771472 0.764535C1.2351 0.464419 1.85423 0.59697 2.15435 1.0606L0.475412 2.14741ZM29.6683 28.3648L29.1979 29.2472L29.6683 28.3648ZM57.5069 31.4104L57.0586 30.5165L57.5069 31.4104ZM62.7174 26.3739L63.6656 26.6915L63.6243 26.815L63.5526 26.9238L62.7174 26.3739ZM59.623 12.8881L58.8319 13.4999L59.623 12.8881ZM48.1205 5.77929L48.3742 4.81201L48.1205 5.77929ZM34.0978 7.61629L34.6079 8.47643L34.5717 8.49788L34.5339 8.51621L34.0978 7.61629ZM43.842 33.0706L43.0847 33.7236L43.842 33.0706ZM73.4621 51.746L73.8191 50.8118L73.4621 51.746ZM112.014 55.5079L111.942 54.5105L112.014 55.5079ZM133.698 49.6973L133.926 50.6709L133.698 49.6973ZM136.583 47.743C137.114 47.8955 137.42 48.4494 137.268 48.9802L134.783 57.6303C134.63 58.1611 134.076 58.4678 133.545 58.3153C133.015 58.1628 132.708 57.6089 132.86 57.0781L135.069 49.3891L127.38 47.1801C126.85 47.0276 126.543 46.4736 126.695 45.9428C126.848 45.412 127.402 45.1053 127.933 45.2578L136.583 47.743ZM2.15435 1.0606C4.55037 4.76202 9.55931 10.3155 15.0116 15.5045C20.4695 20.6988 26.2451 25.4069 30.1387 27.4823L29.1979 29.2472C25.0501 27.0363 19.1105 22.1664 13.6328 16.9532C8.14937 11.7346 3.00228 6.05097 0.475412 2.14741L2.15435 1.0606ZM30.1387 27.4823C33.6731 29.3663 38.6185 31.0481 43.6082 31.7859C48.6223 32.5272 53.5191 32.2916 57.0586 30.5165L57.9551 32.3043C53.8791 34.3484 48.4969 34.5304 43.3157 33.7644C38.1101 32.9947 32.944 31.2441 29.1979 29.2472L30.1387 27.4823ZM57.0586 30.5165C57.913 30.0881 58.6194 29.6524 59.3504 28.9771C60.0909 28.293 60.8887 27.333 61.8822 25.824L63.5526 26.9238C62.5074 28.5114 61.6084 29.614 60.7076 30.4462C59.7972 31.2872 58.9178 31.8215 57.9551 32.3043L57.0586 30.5165ZM61.7692 26.0563C62.6005 23.5746 62.6271 21.4581 62.0937 19.4812C61.5541 17.4812 60.4237 15.5581 58.8319 13.4999L60.414 12.2763C62.0815 14.4325 63.3873 16.598 64.0247 18.9602C64.6682 21.3454 64.6125 23.8646 63.6656 26.6915L61.7692 26.0563ZM58.8319 13.4999C55.8934 9.70014 52.7506 8.02753 47.8668 6.74657L48.3742 4.81201C53.5505 6.16969 57.1313 8.03161 60.414 12.2763L58.8319 13.4999ZM47.8668 6.74657C43.4293 5.58266 38.5947 6.11225 34.6079 8.47643L33.5878 6.75616C38.0717 4.09718 43.4626 3.52374 48.3742 4.81201L47.8668 6.74657ZM34.5339 8.51621C33.7935 8.87497 33.3655 9.3877 33.1351 10.0311C32.8929 10.7075 32.8488 11.5924 33.0255 12.6838C33.3808 14.8777 34.5734 17.5879 36.1321 20.355C39.2344 25.8623 43.5718 31.226 44.5993 32.4175L43.0847 33.7236C42.012 32.4798 37.582 27.0039 34.3896 21.3366C32.801 18.5164 31.4645 15.5556 31.0512 13.0035C30.8437 11.7218 30.8555 10.4649 31.2522 9.35692C31.6607 8.21581 32.4545 7.30138 33.6618 6.71638L34.5339 8.51621ZM44.5993 32.4175C52.6702 41.7766 62.3767 46.4397 73.8191 50.8118L73.1052 52.6801C61.5822 48.2771 51.4893 43.4697 43.0847 33.7236L44.5993 32.4175ZM73.8191 50.8118C86.3137 55.5861 98.3101 55.5018 111.942 54.5105L112.087 56.5052C98.3986 57.5006 86.031 57.6191 73.1052 52.6801L73.8191 50.8118ZM111.942 54.5105C115.643 54.2414 119.13 53.252 122.656 52.0904C126.15 50.9394 129.735 49.5989 133.47 48.7236L133.926 50.6709C130.306 51.5194 126.877 52.8057 123.282 53.99C119.719 55.1636 116.041 56.2177 112.087 56.5052L111.942 54.5105ZM133.47 48.7236C134.516 48.4783 134.982 48.2946 135.822 47.8292L136.791 49.579C135.784 50.1367 135.145 50.3852 133.926 50.6709L133.47 48.7236Z" fill="black"/>
</svg>
