<svg width="63" height="99" viewBox="0 0 63 99" fill="none" xmlns="http://www.w3.org/2000/svg">
<path id="Arrow" d="M0.736753 1.83141C0.778763 1.28072 1.25924 0.868358 1.80992 0.910368C2.36061 0.952377 2.77297 1.43285 2.73096 1.98354L0.736753 1.83141ZM6.55097 31.0785L5.64218 31.4958L6.55097 31.0785ZM21.9502 45.7031L22.135 44.7203L21.9502 45.7031ZM27.4077 45.0573L27.9698 45.8843L27.8621 45.9576L27.7392 46.0007L27.4077 45.0573ZM31.7348 35.4984L30.7348 35.5061L31.7348 35.4984ZM28.0592 25.9256L28.847 25.3096L28.0592 25.9256ZM18.754 20.5932L18.6389 21.5865L18.5971 21.5817L18.5559 21.5734L18.754 20.5932ZM12.9421 40.4283L11.944 40.4893L12.9421 40.4283ZM22.2374 65.3024L23.0872 64.7753L22.2374 65.3024ZM43.7722 85.28L44.3186 84.4424L43.7722 85.28ZM59.5254 91.7335L59.1173 92.6464L59.5254 91.7335ZM62.3577 91.735C62.6877 92.1779 62.5962 92.8044 62.1533 93.1344L54.9367 98.5121C54.4938 98.8421 53.8673 98.7506 53.5373 98.3077C53.2073 97.8649 53.2988 97.2384 53.7416 96.9084L60.1565 92.1282L55.3763 85.7134C55.0463 85.2705 55.1378 84.644 55.5806 84.314C56.0235 83.984 56.65 84.0755 56.98 84.5183L62.3577 91.735ZM2.73096 1.98354C2.47883 5.28856 2.94671 10.9177 3.85247 16.548C4.75947 22.1859 6.07814 27.6521 7.45975 30.6613L5.64218 31.4958C4.14037 28.2249 2.78921 22.5306 1.87786 16.8656C0.965274 11.1929 0.466311 5.37651 0.736753 1.83141L2.73096 1.98354ZM7.45975 30.6613C8.71501 33.3952 10.9105 36.6588 13.5641 39.3769C16.2348 42.1127 19.2551 44.179 22.135 44.7203L21.7655 46.6859C18.2958 46.0337 14.9217 43.6307 12.1329 40.774C9.32693 37.8997 6.99754 34.4478 5.64218 31.4958L7.45975 30.6613ZM22.135 44.7203C22.8329 44.8515 23.4355 44.91 24.1574 44.841C24.8922 44.7708 25.7943 44.5643 27.0762 44.1138L27.7392 46.0007C26.3686 46.4823 25.2995 46.741 24.3475 46.832C23.3825 46.9241 22.5825 46.8395 21.7655 46.6859L22.135 44.7203ZM26.8456 44.2302C28.4507 43.1393 29.4067 41.911 29.9736 40.5204C30.5495 39.1077 30.7498 37.4642 30.7348 35.5061L32.7347 35.4908C32.7507 37.5727 32.5431 39.5153 31.8256 41.2754C31.099 43.0576 29.876 44.5888 27.9698 45.8843L26.8456 44.2302ZM30.7348 35.5061C30.7074 31.9315 29.6075 29.529 27.2715 26.5416L28.847 25.3096C31.3693 28.5352 32.7031 31.3537 32.7347 35.4908L30.7348 35.5061ZM27.2715 26.5416C25.1649 23.8477 22.0611 21.9831 18.6389 21.5865L18.8691 19.5998C22.8655 20.063 26.4385 22.2296 28.847 25.3096L27.2715 26.5416ZM18.5559 21.5734C18.0058 21.4622 17.5766 21.5631 17.1956 21.8107C16.7852 22.0775 16.3762 22.553 15.9925 23.2722C15.2199 24.7205 14.6992 26.8691 14.3698 29.2475C13.7152 33.9736 13.868 39.1847 13.9403 40.3674L11.944 40.4893C11.8676 39.2377 11.7089 33.8811 12.3887 28.9731C12.7265 26.5343 13.2844 24.0993 14.228 22.3308C14.7024 21.4415 15.3109 20.6504 16.1057 20.1338C16.9299 19.5981 17.8934 19.3991 18.9521 19.613L18.5559 21.5734ZM13.9403 40.3674C14.5078 49.6603 18.1964 56.8902 23.0872 64.7753L21.3876 65.8295C16.4513 57.8711 12.5427 50.2922 11.944 40.4893L13.9403 40.3674ZM23.0872 64.7753C28.4043 73.3478 35.6436 78.7832 44.3186 84.4424L43.2258 86.1175C34.5034 80.4273 26.948 74.7942 21.3876 65.8295L23.0872 64.7753ZM44.3186 84.4424C46.6498 85.9632 49.1853 86.9601 51.8423 87.8774C54.4671 88.7836 57.2652 89.6276 59.9336 90.8206L59.1173 92.6464C56.5559 91.5013 53.915 90.7088 51.1896 89.7679C48.4963 88.8381 45.77 87.7773 43.2258 86.1175L44.3186 84.4424ZM59.9336 90.8206C60.6583 91.1446 61.0022 91.2411 61.7003 91.3431L61.4113 93.3221C60.5245 93.1926 60.0036 93.0427 59.1173 92.6464L59.9336 90.8206Z" fill="black"/>
</svg>
