<svg width="178" height="27" viewBox="0 0 178 27" fill="none" xmlns="http://www.w3.org/2000/svg">
<g id="Illustration" clip-path="url(#clip0_291_417)">
<path id="Vector" d="M40.5036 19.7911L44.6536 23.9162C42.8527 25.7283 39.4071 27.0005 36.3142 27.0005C29.8541 27.0005 25.3125 22.644 25.3125 16.5148C25.3125 10.3857 29.7363 6.14459 36.001 6.14459C42.2656 6.14459 46.3367 10.6548 46.3367 18.3264H32.0071C32.5942 20.2155 34.0824 21.4489 36.0004 21.4489C37.5274 21.4489 39.1716 20.832 40.5026 19.7911H40.5036ZM32.1254 14.4326H39.486C38.9377 12.7748 37.6457 11.6956 36.0015 11.6956C34.2006 11.6956 32.7909 12.7748 32.1254 14.4326Z" fill="white"/>
<path id="Vector_2" d="M47.7853 23.9934L50.6043 19.4832C52.5618 20.8325 55.4591 21.8345 57.6122 21.8345C59.0214 21.8345 59.5308 21.4878 59.5308 20.8325C59.5308 20.1384 58.3565 19.7528 56.4768 19.3678C52.7968 18.5966 48.6857 17.7099 48.6857 13.0067C48.6857 9.15174 51.8569 6.14459 57.1423 6.14459C60.2746 6.14459 63.2891 7.26257 65.5988 8.76614L63.0542 13.3152C61.3705 12.236 59.0609 11.1946 57.1423 11.1946C56.0852 11.1946 55.3803 11.7345 55.3803 12.3126C55.3803 12.9679 56.2807 13.0838 58.3165 13.546C61.9966 14.3555 66.2249 15.5506 66.2249 20.2538C66.2249 24.379 62.897 27 57.4156 27C53.8922 27 50.251 25.882 47.7842 23.9928L47.7853 23.9934Z" fill="white"/>
<path id="Vector_3" d="M68.2218 16.5527C68.2218 10.8857 73.4288 6.1441 79.654 6.1441C85.8793 6.1441 91.0469 10.8857 91.0469 16.5527C91.0469 22.2196 85.8398 27 79.654 27C73.4683 27 68.2218 22.2196 68.2218 16.5527ZM83.9995 16.5527C83.9995 14.2396 82.0026 12.3121 79.6535 12.3121C77.3044 12.3121 75.2686 14.2396 75.2686 16.5527C75.2686 18.8657 77.2655 20.832 79.6535 20.832C82.0415 20.832 83.9995 18.8657 83.9995 16.5527Z" fill="white"/>
<path id="Vector_4" d="M114.772 13.8545V26.5378H107.568V15.5895C107.568 13.662 106.316 12.3126 104.514 12.3126C102.831 12.3126 101.617 13.5849 101.617 15.3581V26.5378H94.0609V6.60682H101.617V8.61141C102.87 7.06955 104.906 6.1441 107.333 6.1441C111.679 6.1441 114.772 9.34379 114.772 13.854L114.772 13.8545Z" fill="white"/>
<path id="Vector_5" d="M137.792 14.7794V26.5373H130.55V25.1108C129.179 26.3442 127.261 27 125.343 27C120.997 27 117.552 24.3784 117.552 20.6389C117.552 16.8994 121.388 14.0082 126.282 14.0082C127.613 14.0082 129.102 14.3167 130.55 14.8948V14.7794C130.55 12.8131 128.749 11.6568 126.4 11.6568C124.482 11.6568 123.19 12.1578 121.506 13.0061L119.197 8.49596C122.016 7.10833 125.03 6.14459 128.437 6.14459C133.565 6.14459 137.794 9.34428 137.794 14.7799L137.792 14.7794ZM130.55 20.6389V18.7497C129.845 18.403 128.514 18.1328 127.339 18.1328C125.812 18.1328 124.716 19.0965 124.716 20.4458C124.716 21.7181 125.734 22.6047 127.182 22.6047C128.983 22.6047 130.393 21.7952 130.549 20.6384L130.55 20.6389Z" fill="white"/>
<path id="Vector_6" d="M154.941 24.9571C153.688 26.1522 151.534 27.0005 149.734 27.0005C145.701 27.0005 142.882 24.2247 142.882 20.2544V12.4663H140.338V6.60678H142.882V1.13232H150.086V6.60678H154.08V12.4663H150.086V18.7886C150.086 19.9837 150.791 20.832 151.809 20.832C152.514 20.832 153.257 20.6006 153.649 20.2538L154.941 24.9571H154.941Z" fill="white"/>
<path id="Vector_7" d="M172.166 19.7911L176.316 23.9162C174.516 25.7283 171.07 27.0005 167.977 27.0005C161.517 27.0005 156.976 22.644 156.976 16.5148C156.976 10.3857 161.4 6.14459 167.664 6.14459C173.928 6.14459 178 10.6548 178 18.3264H163.67C164.258 20.2155 165.746 21.4489 167.664 21.4489C169.191 21.4489 170.835 20.832 172.166 19.7911H172.166ZM163.788 14.4326H171.149C170.601 12.7748 169.309 11.6956 167.664 11.6956C165.863 11.6956 164.454 12.7748 163.788 14.4326Z" fill="white"/>
<g id="Group">
<path id="Vector_8" d="M18.25 17.502C21.5385 15.9984 23.5748 13.0301 23.5748 9.25228C23.5748 3.81665 19.3071 0 13.278 0H8.04663V6.78497H12.6514C14.4523 6.78497 15.7443 7.82583 15.7443 9.25228C15.7443 10.6787 14.4523 11.7196 12.6514 11.7196H8.04663V18.5046H10.3417L16.0187 26.4846H24.6713L18.2506 17.5025L18.25 17.502Z" fill="white"/>
<path id="Vector_9" d="M5.77797 9.54535H0.312744V26.4841H5.77797V9.54535Z" fill="#C93445"/>
<path id="Vector_10" d="M3.46127 7.19879V7.78543H2.42095V7.17113C1.50377 7.04987 0.662222 6.70575 0 6.12815L1.02142 4.9272C1.6831 5.43939 2.40204 5.70957 3.16797 5.70957C3.66923 5.70957 3.9339 5.54203 3.9339 5.26281C3.9339 4.95539 3.70704 4.90912 2.80877 4.70435C1.39952 4.38789 0.312206 4.02463 0.312206 2.69285C0.312206 1.54668 1.13485 0.764845 2.42095 0.615392V0.0287476H3.46127V0.615392C4.31255 0.708468 5.01204 0.987696 5.59864 1.45361L4.68147 2.72901C4.0765 2.30086 3.41428 2.08652 2.82822 2.08652C2.38368 2.08652 2.16654 2.26363 2.16654 2.50563C2.16654 2.83166 2.3934 2.93378 3.32029 3.12951C4.83325 3.44596 5.77905 3.84646 5.77905 5.06655C5.77905 6.28664 4.88078 7.0871 3.46235 7.19879H3.46127Z" fill="#C93445"/>
</g>
</g>
<defs>
<clipPath id="clip0_291_417">
<rect width="178" height="27" fill="white"/>
</clipPath>
</defs>
</svg>
